<svg width="1400" height="1200" viewBox="0 0 1400 1200" fill="none" xmlns="http://www.w3.org/2000/svg">
    <!-- Background -->
    <rect width="1400" height="1200" fill="#f9fafb"/>

    <!-- Header -->
    <rect x="50" y="30" width="1300" height="80" rx="12" fill="white" stroke="#5eead4" stroke-width="1"/>
    <text x="80" y="60" font-family="Arial, sans-serif" font-size="24" font-weight="bold" fill="#0f766e">Find Hospitals</text>
    <text x="80" y="85" font-family="Arial, sans-serif" font-size="14" fill="#6b7280">Search and filter hospitals by location, type, and organization</text>

    <!-- Search Bar -->
    <rect x="900" y="45" width="400" height="40" rx="8" fill="white" stroke="#2dd4bf" stroke-width="1"/>
    <circle cx="920" cy="65" r="8" stroke="#6b7280" stroke-width="1.5" fill="none"/>
    <path d="M926 71l6 6" stroke="#6b7280" stroke-width="1.5"/>
    <text x="940" y="70" font-family="Arial, sans-serif" font-size="14" fill="#9ca3af">Search hospitals...</text>

    <!-- Filter Section -->
    <rect x="50" y="130" width="300" height="900" rx="12" fill="white" stroke="#5eead4" stroke-width="1"/>

    <!-- Filter Header -->
    <text x="70" y="160" font-family="Arial, sans-serif" font-size="18" font-weight="bold" fill="#0f766e">Filters</text>

    <!-- Hospital Name Filter -->
    <text x="70" y="190" font-family="Arial, sans-serif" font-size="14" font-weight="500" fill="#374151">Hospital Name</text>
    <rect x="70" y="200" width="240" height="32" rx="6" fill="white" stroke="#d1d5db" stroke-width="1"/>
    <text x="80" y="220" font-family="Arial, sans-serif" font-size="12" fill="#9ca3af">Enter hospital name</text>

    <!-- Bengali Name Filter -->
    <text x="70" y="250" font-family="Arial, sans-serif" font-size="14" font-weight="500" fill="#374151">Bengali Name</text>
    <rect x="70" y="260" width="240" height="32" rx="6" fill="white" stroke="#d1d5db" stroke-width="1"/>
    <text x="80" y="280" font-family="Arial, sans-serif" font-size="12" fill="#9ca3af">বাংলা নাম</text>

    <!-- District Filter -->
    <text x="70" y="310" font-family="Arial, sans-serif" font-size="14" font-weight="500" fill="#374151">District</text>
    <rect x="70" y="320" width="240" height="32" rx="6" fill="white" stroke="#d1d5db" stroke-width="1"/>
    <text x="80" y="340" font-family="Arial, sans-serif" font-size="12" fill="#9ca3af">Select district(s)</text>
    <path d="M290 335l5 5-5 5" stroke="#6b7280" stroke-width="1.5" fill="none"/>

    <!-- Upazila Filter -->
    <text x="70" y="370" font-family="Arial, sans-serif" font-size="14" font-weight="500" fill="#374151">Upazila</text>
    <rect x="70" y="380" width="240" height="32" rx="6" fill="white" stroke="#d1d5db" stroke-width="1"/>
    <text x="80" y="400" font-family="Arial, sans-serif" font-size="12" fill="#9ca3af">Select upazila</text>
    <path d="M290 395l5 5-5 5" stroke="#6b7280" stroke-width="1.5" fill="none"/>

    <!-- Union Filter -->
    <text x="70" y="430" font-family="Arial, sans-serif" font-size="14" font-weight="500" fill="#374151">Union</text>
    <rect x="70" y="440" width="240" height="32" rx="6" fill="white" stroke="#d1d5db" stroke-width="1"/>
    <text x="80" y="460" font-family="Arial, sans-serif" font-size="12" fill="#9ca3af">Select union</text>
    <path d="M290 455l5 5-5 5" stroke="#6b7280" stroke-width="1.5" fill="none"/>

    <!-- Hospital Types Filter -->
    <text x="70" y="490" font-family="Arial, sans-serif" font-size="14" font-weight="500" fill="#374151">Hospital Types</text>
    <rect x="70" y="500" width="240" height="32" rx="6" fill="white" stroke="#d1d5db" stroke-width="1"/>
    <text x="80" y="520" font-family="Arial, sans-serif" font-size="12" fill="#9ca3af">Select type(s)</text>
    <path d="M290 515l5 5-5 5" stroke="#6b7280" stroke-width="1.5" fill="none"/>

    <!-- Organization Type Filter -->
    <text x="70" y="550" font-family="Arial, sans-serif" font-size="14" font-weight="500" fill="#374151">Organization Type</text>
    <rect x="70" y="560" width="240" height="32" rx="6" fill="white" stroke="#d1d5db" stroke-width="1"/>
    <text x="80" y="580" font-family="Arial, sans-serif" font-size="12" fill="#9ca3af">Select organization</text>
    <path d="M290 575l5 5-5 5" stroke="#6b7280" stroke-width="1.5" fill="none"/>

    <!-- Filter Buttons -->
    <rect x="70" y="620" width="100" height="36" rx="6" fill="#14b8a6"/>
    <text x="120" y="642" text-anchor="middle" font-family="Arial, sans-serif" font-size="14" fill="white">Apply</text>

    <rect x="180" y="620" width="80" height="36" rx="6" fill="none" stroke="#d1d5db" stroke-width="1"/>
    <text x="220" y="642" text-anchor="middle" font-family="Arial, sans-serif" font-size="14" fill="#6b7280">Clear</text>

    <!-- Results Section -->
    <rect x="370" y="130" width="980" height="80" rx="8" fill="white" stroke="#e5e7eb" stroke-width="1"/>

    <!-- Results Header -->
    <text x="390" y="160" font-family="Arial, sans-serif" font-size="18" font-weight="bold" fill="#111827">Search Results</text>
    <text x="390" y="185" font-family="Arial, sans-serif" font-size="14" fill="#6b7280">Found 245 hospitals matching your criteria</text>

    <!-- Sort Options -->
    <text x="1100" y="160" font-family="Arial, sans-serif" font-size="14" font-weight="500" fill="#374151">Sort by:</text>
    <rect x="1100" y="170" width="120" height="28" rx="4" fill="white" stroke="#d1d5db" stroke-width="1"/>
    <text x="1110" y="188" font-family="Arial, sans-serif" font-size="12" fill="#111827">Relevance</text>
    <path d="M1210 185l5 3-5 3" stroke="#6b7280" stroke-width="1" fill="none"/>

    <!-- Hospital Cards Grid -->

    <!-- Hospital Card 1 -->
    <rect x="370" y="230" width="300" height="180" rx="12" fill="white" stroke="#e5e7eb" stroke-width="1"/>

    <!-- Hospital Icon -->
    <rect x="390" y="250" width="60" height="60" rx="8" fill="#ccfbf1" stroke="#2dd4bf" stroke-width="2"/>
    <rect x="410" y="265" width="20" height="30" rx="1" stroke="#0f766e" stroke-width="2" fill="none"/>
    <path d="M420 255L410 265v30h20v-30l-10-10z" stroke="#0f766e" stroke-width="2" fill="none"/>
    <path d="M415 280h10M420 275v10" stroke="#0f766e" stroke-width="2"/>

    <text x="470" y="265" font-family="Arial, sans-serif" font-size="16" font-weight="bold" fill="#111827">Dhaka Medical College</text>
    <text x="470" y="285" font-family="Arial, sans-serif" font-size="12" fill="#0d9488">ঢাকা মেডিকেল কলেজ হাসপাতাল</text>

    <rect x="470" y="295" width="80" height="18" rx="9" fill="none" stroke="#2dd4bf" stroke-width="1"/>
    <text x="510" y="306" text-anchor="middle" font-family="Arial, sans-serif" font-size="10" fill="#0f766e">College</text>

    <rect x="560" y="295" width="80" height="18" rx="9" fill="#14b8a6"/>
    <text x="600" y="306" text-anchor="middle" font-family="Arial, sans-serif" font-size="10" fill="white">Government</text>

    <text x="470" y="325" font-family="Arial, sans-serif" font-size="12" fill="#6b7280">1700 Beds • Dhaka</text>
    <text x="470" y="340" font-family="Arial, sans-serif" font-size="12" fill="#6b7280">500+ Doctors • 24/7 Emergency</text>

    <rect x="390" y="365" width="120" height="30" rx="6" fill="#14b8a6"/>
    <text x="450" y="383" text-anchor="middle" font-family="Arial, sans-serif" font-size="12" fill="white">Find Doctors</text>

    <rect x="520" y="365" width="80" height="30" rx="6" fill="none" stroke="#2dd4bf" stroke-width="1"/>
    <text x="560" y="383" text-anchor="middle" font-family="Arial, sans-serif" font-size="12" fill="#0f766e">View Details</text>

    <!-- Hospital Card 2 -->
    <rect x="690" y="230" width="300" height="180" rx="12" fill="white" stroke="#e5e7eb" stroke-width="1"/>

    <rect x="710" y="250" width="60" height="60" rx="8" fill="#ccfbf1" stroke="#2dd4bf" stroke-width="2"/>
    <rect x="730" y="265" width="20" height="30" rx="1" stroke="#0f766e" stroke-width="2" fill="none"/>
    <path d="M740 255L730 265v30h20v-30l-10-10z" stroke="#0f766e" stroke-width="2" fill="none"/>
    <path d="M735 280h10M740 275v10" stroke="#0f766e" stroke-width="2"/>

    <text x="790" y="265" font-family="Arial, sans-serif" font-size="16" font-weight="bold" fill="#111827">Square Hospital</text>
    <text x="790" y="285" font-family="Arial, sans-serif" font-size="12" fill="#0d9488">স্কয়ার হাসপাতাল</text>

    <rect x="790" y="295" width="80" height="18" rx="9" fill="none" stroke="#2dd4bf" stroke-width="1"/>
    <text x="830" y="306" text-anchor="middle" font-family="Arial, sans-serif" font-size="10" fill="#0f766e">General</text>

    <rect x="880" y="295" width="60" height="18" rx="9" fill="#059669"/>
    <text x="910" y="306" text-anchor="middle" font-family="Arial, sans-serif" font-size="10" fill="white">Private</text>

    <text x="790" y="325" font-family="Arial, sans-serif" font-size="12" fill="#6b7280">650 Beds • Dhaka</text>
    <text x="790" y="340" font-family="Arial, sans-serif" font-size="12" fill="#6b7280">300+ Doctors • Premium Care</text>

    <rect x="710" y="365" width="120" height="30" rx="6" fill="#14b8a6"/>
    <text x="770" y="383" text-anchor="middle" font-family="Arial, sans-serif" font-size="12" fill="white">Find Doctors</text>

    <rect x="840" y="365" width="80" height="30" rx="6" fill="none" stroke="#2dd4bf" stroke-width="1"/>
    <text x="880" y="383" text-anchor="middle" font-family="Arial, sans-serif" font-size="12" fill="#0f766e">View Details</text>

    <!-- Hospital Card 3 -->
    <rect x="1010" y="230" width="300" height="180" rx="12" fill="white" stroke="#e5e7eb" stroke-width="1"/>

    <rect x="1030" y="250" width="60" height="60" rx="8" fill="#ccfbf1" stroke="#2dd4bf" stroke-width="2"/>
    <rect x="1050" y="265" width="20" height="30" rx="1" stroke="#0f766e" stroke-width="2" fill="none"/>
    <path d="M1060 255L1050 265v30h20v-30l-10-10z" stroke="#0f766e" stroke-width="2" fill="none"/>
    <path d="M1055 280h10M1060 275v10" stroke="#0f766e" stroke-width="2"/>

    <text x="1110" y="265" font-family="Arial, sans-serif" font-size="16" font-weight="bold" fill="#111827">Apollo Hospital</text>
    <text x="1110" y="285" font-family="Arial, sans-serif" font-size="12" fill="#0d9488">অ্যাপোলো হাসপাতাল</text>

    <rect x="1110" y="295" width="80" height="18" rx="9" fill="none" stroke="#2dd4bf" stroke-width="1"/>
    <text x="1150" y="306" text-anchor="middle" font-family="Arial, sans-serif" font-size="10" fill="#0f766e">Specialized</text>

    <rect x="1200" y="295" width="60" height="18" rx="9" fill="#059669"/>
    <text x="1230" y="306" text-anchor="middle" font-family="Arial, sans-serif" font-size="10" fill="white">Private</text>

    <text x="1110" y="325" font-family="Arial, sans-serif" font-size="12" fill="#6b7280">450 Beds • Dhaka</text>
    <text x="1110" y="340" font-family="Arial, sans-serif" font-size="12" fill="#6b7280">250+ Doctors • Advanced Care</text>

    <rect x="1030" y="365" width="120" height="30" rx="6" fill="#14b8a6"/>
    <text x="1090" y="383" text-anchor="middle" font-family="Arial, sans-serif" font-size="12" fill="white">Find Doctors</text>

    <rect x="1160" y="365" width="80" height="30" rx="6" fill="none" stroke="#2dd4bf" stroke-width="1"/>
    <text x="1200" y="383" text-anchor="middle" font-family="Arial, sans-serif" font-size="12" fill="#0f766e">View Details</text>

    <!-- Hospital Card 4 -->
    <rect x="370" y="430" width="300" height="180" rx="12" fill="white" stroke="#e5e7eb" stroke-width="1"/>

    <rect x="390" y="450" width="60" height="60" rx="8" fill="#ccfbf1" stroke="#2dd4bf" stroke-width="2"/>
    <rect x="410" y="465" width="20" height="30" rx="1" stroke="#0f766e" stroke-width="2" fill="none"/>
    <path d="M420 455L410 465v30h20v-30l-10-10z" stroke="#0f766e" stroke-width="2" fill="none"/>
    <path d="M415 480h10M420 475v10" stroke="#0f766e" stroke-width="2"/>

    <text x="470" y="465" font-family="Arial, sans-serif" font-size="16" font-weight="bold" fill="#111827">BIRDEM General</text>
    <text x="470" y="485" font-family="Arial, sans-serif" font-size="12" fill="#0d9488">বারডেম জেনারেল হাসপাতাল</text>

    <rect x="470" y="495" width="80" height="18" rx="9" fill="none" stroke="#2dd4bf" stroke-width="1"/>
    <text x="510" y="506" text-anchor="middle" font-family="Arial, sans-serif" font-size="10" fill="#0f766e">Specialized</text>

    <rect x="560" y="495" width="80" height="18" rx="9" fill="#f59e0b"/>
    <text x="600" y="506" text-anchor="middle" font-family="Arial, sans-serif" font-size="10" fill="white">Non-profit</text>

    <text x="470" y="525" font-family="Arial, sans-serif" font-size="12" fill="#6b7280">750 Beds • Dhaka</text>
    <text x="470" y="540" font-family="Arial, sans-serif" font-size="12" fill="#6b7280">400+ Doctors • Diabetes Care</text>

    <rect x="390" y="565" width="120" height="30" rx="6" fill="#14b8a6"/>
    <text x="450" y="583" text-anchor="middle" font-family="Arial, sans-serif" font-size="12" fill="white">Find Doctors</text>

    <rect x="520" y="565" width="80" height="30" rx="6" fill="none" stroke="#2dd4bf" stroke-width="1"/>
    <text x="560" y="583" text-anchor="middle" font-family="Arial, sans-serif" font-size="12" fill="#0f766e">View Details</text>

    <!-- Hospital Card 5 -->
    <rect x="690" y="430" width="300" height="180" rx="12" fill="white" stroke="#e5e7eb" stroke-width="1"/>

    <rect x="710" y="450" width="60" height="60" rx="8" fill="#ccfbf1" stroke="#2dd4bf" stroke-width="2"/>
    <rect x="730" y="465" width="20" height="30" rx="1" stroke="#0f766e" stroke-width="2" fill="none"/>
    <path d="M740 455L730 465v30h20v-30l-10-10z" stroke="#0f766e" stroke-width="2" fill="none"/>
    <path d="M735 480h10M740 475v10" stroke="#0f766e" stroke-width="2"/>

    <text x="790" y="465" font-family="Arial, sans-serif" font-size="16" font-weight="bold" fill="#111827">United Hospital</text>
    <text x="790" y="485" font-family="Arial, sans-serif" font-size="12" fill="#0d9488">ইউনাইটেড হাসপাতাল</text>

    <rect x="790" y="495" width="80" height="18" rx="9" fill="none" stroke="#2dd4bf" stroke-width="1"/>
    <text x="830" y="506" text-anchor="middle" font-family="Arial, sans-serif" font-size="10" fill="#0f766e">General</text>

    <rect x="880" y="495" width="60" height="18" rx="9" fill="#059669"/>
    <text x="910" y="506" text-anchor="middle" font-family="Arial, sans-serif" font-size="10" fill="white">Private</text>

    <text x="790" y="525" font-family="Arial, sans-serif" font-size="12" fill="#6b7280">600 Beds • Dhaka</text>
    <text x="790" y="540" font-family="Arial, sans-serif" font-size="12" fill="#6b7280">350+ Doctors • ICU Facility</text>

    <rect x="710" y="565" width="120" height="30" rx="6" fill="#14b8a6"/>
    <text x="770" y="583" text-anchor="middle" font-family="Arial, sans-serif" font-size="12" fill="white">Find Doctors</text>

    <rect x="840" y="565" width="80" height="30" rx="6" fill="none" stroke="#2dd4bf" stroke-width="1"/>
    <text x="880" y="583" text-anchor="middle" font-family="Arial, sans-serif" font-size="12" fill="#0f766e">View Details</text>

    <!-- Hospital Card 6 -->
    <rect x="1010" y="430" width="300" height="180" rx="12" fill="white" stroke="#e5e7eb" stroke-width="1"/>

    <rect x="1030" y="450" width="60" height="60" rx="8" fill="#ccfbf1" stroke="#2dd4bf" stroke-width="2"/>
    <rect x="1050" y="465" width="20" height="30" rx="1" stroke="#0f766e" stroke-width="2" fill="none"/>
    <path d="M1060 455L1050 465v30h20v-30l-10-10z" stroke="#0f766e" stroke-width="2" fill="none"/>
    <path d="M1055 480h10M1060 475v10" stroke="#0f766e" stroke-width="2"/>

    <text x="1110" y="465" font-family="Arial, sans-serif" font-size="16" font-weight="bold" fill="#111827">National Hospital</text>
    <text x="1110" y="485" font-family="Arial, sans-serif" font-size="12" fill="#0d9488">জাতীয় হাসপাতাল</text>

    <rect x="1110" y="495" width="80" height="18" rx="9" fill="none" stroke="#2dd4bf" stroke-width="1"/>
    <text x="1150" y="506" text-anchor="middle" font-family="Arial, sans-serif" font-size="10" fill="#0f766e">General</text>

    <rect x="1200" y="495" width="80" height="18" rx="9" fill="#14b8a6"/>
    <text x="1240" y="506" text-anchor="middle" font-family="Arial, sans-serif" font-size="10" fill="white">Government</text>

    <text x="1110" y="525" font-family="Arial, sans-serif" font-size="12" fill="#6b7280">1200 Beds • Dhaka</text>
    <text x="1110" y="540" font-family="Arial, sans-serif" font-size="12" fill="#6b7280">450+ Doctors • Trauma Center</text>

    <rect x="1030" y="565" width="120" height="30" rx="6" fill="#14b8a6"/>
    <text x="1090" y="583" text-anchor="middle" font-family="Arial, sans-serif" font-size="12" fill="white">Find Doctors</text>

    <rect x="1160" y="565" width="80" height="30" rx="6" fill="none" stroke="#2dd4bf" stroke-width="1"/>
    <text x="1200" y="583" text-anchor="middle" font-family="Arial, sans-serif" font-size="12" fill="#0f766e">View Details</text>

    <!-- Pagination Section -->
    <rect x="370" y="640" width="980" height="80" rx="8" fill="white" stroke="#e5e7eb" stroke-width="1"/>

    <!-- Pagination Info -->
    <text x="390" y="670" font-family="Arial, sans-serif" font-size="14" fill="#6b7280">Showing 1-6 of 245 hospitals</text>

    <!-- Pagination Controls -->
    <rect x="1050" y="650" width="60" height="35" rx="6" fill="none" stroke="#d1d5db" stroke-width="1"/>
    <path d="M1070 667l-5 0 5-5v10z" fill="#6b7280"/>
    <text x="1085" y="672" font-family="Arial, sans-serif" font-size="12" fill="#6b7280">Previous</text>

    <!-- Page Numbers -->
    <rect x="1120" y="650" width="30" height="35" rx="6" fill="#14b8a6"/>
    <text x="1135" y="672" text-anchor="middle" font-family="Arial, sans-serif" font-size="14" font-weight="bold" fill="white">1</text>

    <rect x="1160" y="650" width="30" height="35" rx="6" fill="none" stroke="#d1d5db" stroke-width="1"/>
    <text x="1175" y="672" text-anchor="middle" font-family="Arial, sans-serif" font-size="14" fill="#6b7280">2</text>

    <rect x="1200" y="650" width="30" height="35" rx="6" fill="none" stroke="#d1d5db" stroke-width="1"/>
    <text x="1215" y="672" text-anchor="middle" font-family="Arial, sans-serif" font-size="14" fill="#6b7280">3</text>

    <text x="1245" y="672" font-family="Arial, sans-serif" font-size="14" fill="#6b7280">...</text>

    <rect x="1270" y="650" width="30" height="35" rx="6" fill="none" stroke="#d1d5db" stroke-width="1"/>
    <text x="1285" y="672" text-anchor="middle" font-family="Arial, sans-serif" font-size="14" fill="#6b7280">41</text>

    <rect x="1310" y="650" width="40" height="35" rx="6" fill="none" stroke="#d1d5db" stroke-width="1"/>
    <text x="1330" y="672" text-anchor="middle" font-family="Arial, sans-serif" font-size="12" fill="#6b7280">Next</text>
    <path d="M1340 667l5 0-5-5v10z" fill="#6b7280"/>

    <!-- Footer -->
    <text x="700" y="1170" text-anchor="middle" font-family="Arial, sans-serif" font-size="12" fill="#6b7280">© 2025 OpenCare Healthcare Platform. All rights reserved.</text>
</svg>